<?xml version="1.0" encoding="utf-8"?>
<!-- Generator: Adobe Illustrator 16.0.0, SVG Export Plug-In . SVG Version: 6.00 Build 0)  -->
<!DOCTYPE svg PUBLIC "-//W3C//DTD SVG 1.1//EN" "http://www.w3.org/Graphics/SVG/1.1/DTD/svg11.dtd">
<svg version="1.1" id="Layer_1" xmlns="http://www.w3.org/2000/svg" xmlns:xlink="http://www.w3.org/1999/xlink" x="0px" y="0px"
	 width="168px" height="168px" viewBox="0 0 168 168" enable-background="new 0 0 168 168" xml:space="preserve">
<g>
	<rect fill="#ED1C24" width="168" height="168"/>
	<rect x="-39.5" y="134.447" fill="#231F20" width="251" height="54.053"/>
</g>
<g display="none" enable-background="new    ">
	<path display="inline" fill="#FFFFFF" d="M71.104,168v-22.998h7.924v5.602c3.794,6.895,8.758,10.338,14.891,10.338
		c3.127,0,5.769-0.957,7.925-2.867c2.155-1.913,3.233-4.418,3.233-7.516c0-3.007-0.882-5.17-2.642-6.49
		c-1.763-1.318-5.086-2.633-9.976-3.938c-5.678-1.52-9.882-2.951-12.615-4.304c-2.732-1.353-4.911-3.278-6.535-5.783
		c-1.625-2.505-2.436-5.474-2.436-8.901c0-5.313,1.768-9.558,5.305-12.729c3.537-3.173,7.977-4.761,13.321-4.761
		c5.068,0,9.775,1.641,14.118,4.92v-4.235h7.741v19.218h-7.741v-4.416c-3.25-4.889-7.729-7.332-13.437-7.332
		c-3.461,0-6.119,0.797-7.97,2.392c-1.852,1.594-2.778,3.5-2.778,5.716c0,1.7,0.47,3.193,1.412,4.484
		c0.941,1.291,2.141,2.238,3.598,2.848c1.458,0.605,4.328,1.456,8.609,2.546c5.588,1.453,9.641,2.812,12.16,4.069
		c2.52,1.26,4.689,3.363,6.512,6.311c1.82,2.945,2.73,6.331,2.73,10.157c0,5.405-1.904,9.871-5.715,13.394
		c-3.811,3.523-8.523,5.284-14.141,5.284c-5.771,0-10.96-2.079-15.577-6.237V168H71.104z"/>
	<path display="inline" fill="#FFFFFF" d="M127.256,160.076v-47.499h-7.787v-7.925h21.086c5.799,0,10.147,0.35,13.047,1.048
		c2.898,0.698,5.457,2.467,7.674,5.306c2.218,2.839,3.324,6.171,3.324,9.996c0,2.945-0.66,5.602-1.979,7.971
		c-1.32,2.367-3.258,4.159-5.809,5.373c3.521,1.215,6.23,3.228,8.129,6.034c1.896,2.81,2.848,6.019,2.848,9.632
		c0,3.127-0.705,5.967-2.117,8.516c-1.412,2.553-3.287,4.524-5.624,5.923c-2.339,1.396-4.896,2.338-7.674,2.821
		c-2.776,0.486-6.563,0.729-11.36,0.729h-21.541v-7.924L127.256,160.076L127.256,160.076z M136.82,131.021h5.965
		c4.555,0,7.734-0.797,9.541-2.393c1.807-1.594,2.71-3.938,2.71-7.036c0-6.012-4.083-9.017-12.251-9.017h-5.965V131.021z
		 M136.82,160.076h3.598c4.705,0,8.15-0.235,10.338-0.706c2.186-0.472,3.969-1.578,5.352-3.324c1.381-1.746,2.072-3.985,2.072-6.718
		c0-2.489-0.662-4.577-1.98-6.262c-1.32-1.687-3.021-2.81-5.102-3.37c-2.08-0.563-5.018-0.843-8.813-0.843h-5.465V160.076
		L136.82,160.076z"/>
</g>
<path display="none" fill="#E5E516" d="M84.025,84.786h-0.051C82.889,124.624,0,134.447,0,134.447h84h84
	C168,134.447,85.111,124.624,84.025,84.786z"/>
</svg>
