<?xml version="1.0" encoding="UTF-8"?>
<svg width="43px" height="43px" viewBox="0 0 43 43" version="1.1" xmlns="http://www.w3.org/2000/svg" xmlns:xlink="http://www.w3.org/1999/xlink">
    <!-- Generator: Sketch 57.1 (83088) - https://sketch.com -->
    <title>Artboard</title>
    <desc>Created with Sketch.</desc>
    <g id="Artboard" stroke="none" stroke-width="1" fill="none" fill-rule="evenodd">
        <rect fill="#1D2B2F" x="0" y="0" width="43" height="43"></rect>
        <path d="M29.8,17.4018815 C29.8,12.7018815 26,9.0018815 21.4,9.0018815 C16.8,8.9018815 13,12.8018815 13,17.4018815 C13,22.1018815 16.8,25.9018815 21.4,25.9018815 C23.4,25.9018815 25.2,25.2018815 26.7,24.0018815 L26.7,25.8018815 C26.7,28.7018815 24.3,31.1018815 21.4,31.1018815 C19.3,31.1018815 17.4,29.8018815 16.6,27.9018815 L13.3,27.9018815 C14.3,31.5018815 17.5,34.2018815 21.4,34.2018815 C26,34.2018815 29.8,30.4018815 29.8,25.7018815 L29.8,17.4018815 L29.8,17.4018815 Z M21.4,22.8018815 C18.5,22.8018815 16.1,20.4018815 16.1,17.5018815 C16.1,14.6018815 18.5,12.2018815 21.4,12.2018815 C24.3,12.2018815 26.7,14.6018815 26.7,17.5018815 C26.7,20.4018815 24.3,22.8018815 21.4,22.8018815 Z" id="Fill-8" fill="#32D9C3" fill-rule="nonzero"></path>
    </g>
</svg>