<?xml version="1.0" encoding="utf-8"?>
<!-- Generator: Adobe Illustrator 16.0.0, SVG Export Plug-In . SVG Version: 6.00 Build 0)  -->
<!DOCTYPE svg PUBLIC "-//W3C//DTD SVG 1.1//EN" "http://www.w3.org/Graphics/SVG/1.1/DTD/svg11.dtd">
<svg version="1.1" id="Layer_1" xmlns="http://www.w3.org/2000/svg" xmlns:xlink="http://www.w3.org/1999/xlink" x="0px" y="0px"
	 width="168px" height="168px" viewBox="0 0 168 168" enable-background="new 0 0 168 168" xml:space="preserve">
<g>
	<rect fill="#ED1C24" width="168" height="168"/>
	<rect y="134.447" fill="#231F20" width="168" height="33.553"/>
</g>
<g display="none" enable-background="new    ">
	<path display="inline" fill="#FFFFFF" d="M71.104,168v-22.998h7.924v5.602c3.794,6.893,8.758,10.338,14.891,10.338
		c3.127,0,5.769-0.957,7.925-2.869c2.155-1.913,3.233-4.418,3.233-7.515c0-3.006-0.881-5.169-2.642-6.489s-5.085-2.634-9.974-3.939
		c-5.678-1.518-9.882-2.952-12.615-4.304c-2.732-1.351-4.911-3.278-6.535-5.783c-1.625-2.505-2.436-5.473-2.436-8.903
		c0-5.313,1.768-9.556,5.305-12.729c3.537-3.173,7.977-4.76,13.321-4.76c5.069,0,9.776,1.64,14.118,4.919v-4.235h7.742v19.218
		h-7.742v-4.417c-3.25-4.888-7.728-7.332-13.436-7.332c-3.461,0-6.118,0.797-7.969,2.391c-1.852,1.594-2.778,3.5-2.778,5.716
		c0,1.7,0.47,3.195,1.412,4.485c0.941,1.291,2.141,2.239,3.598,2.847c1.458,0.607,4.327,1.456,8.609,2.546
		c5.588,1.453,9.641,2.81,12.16,4.07s4.689,3.363,6.511,6.31c1.821,2.945,2.731,6.331,2.731,10.157
		c0,5.407-1.905,9.871-5.715,13.394c-3.811,3.523-8.523,5.284-14.141,5.284c-5.769,0-10.96-2.079-15.575-6.239V168H71.104z"/>
	<path display="inline" fill="#FFFFFF" d="M127.256,160.076v-47.499h-7.787v-7.925h21.086c5.799,0,10.147,0.35,13.047,1.048
		c2.898,0.698,5.457,2.467,7.674,5.306c2.216,2.839,3.324,6.171,3.324,9.996c0,2.945-0.66,5.602-1.98,7.97s-3.256,4.16-5.807,5.374
		c3.521,1.214,6.23,3.226,8.129,6.034c1.896,2.809,2.846,6.019,2.846,9.632c0,3.127-0.705,5.966-2.117,8.516
		c-1.412,2.551-3.287,4.524-5.624,5.921c-2.339,1.396-4.896,2.338-7.674,2.823c-2.778,0.486-6.565,0.729-11.362,0.729h-21.541
		v-7.924H127.256z M136.82,131.021h5.965c4.555,0,7.734-0.797,9.541-2.391s2.71-3.939,2.71-7.036c0-6.012-4.083-9.017-12.251-9.017
		h-5.965V131.021z M136.82,160.076h3.598c4.705,0,8.151-0.235,10.338-0.706c2.186-0.471,3.969-1.578,5.351-3.324
		s2.072-3.985,2.072-6.718c0-2.489-0.661-4.577-1.981-6.262s-3.021-2.808-5.1-3.37c-2.08-0.562-5.018-0.843-8.813-0.843h-5.465
		V160.076z"/>
</g>
<path display="none" fill="#E5E516" d="M84.025,84.786h-0.051C82.889,124.624,0,134.447,0,134.447h84h84
	C168,134.447,85.111,124.624,84.025,84.786z"/>
</svg>
