<?xml version="1.0" encoding="utf-8"?>
<!-- Generator: Adobe Illustrator 16.0.0, SVG Export Plug-In . SVG Version: 6.00 Build 0)  -->
<!DOCTYPE svg PUBLIC "-//W3C//DTD SVG 1.1//EN" "http://www.w3.org/Graphics/SVG/1.1/DTD/svg11.dtd">
<svg version="1.1"
	 id="svg2" xmlns:dc="http://purl.org/dc/elements/1.1/" xmlns:cc="http://creativecommons.org/ns#" xmlns:rdf="http://www.w3.org/1999/02/22-rdf-syntax-ns#" xmlns:svg="http://www.w3.org/2000/svg" xmlns:inkscape="http://www.inkscape.org/namespaces/inkscape"
	 xmlns="http://www.w3.org/2000/svg" xmlns:xlink="http://www.w3.org/1999/xlink" x="0px" y="0px" width="235.812px" height="87px"
	 viewBox="0 0 235.812 87" enable-background="new 0 0 235.812 87" xml:space="preserve">
<defs>
	
	<inkscape:path-effect  effect="spiro" id="path-effect2998"></inkscape:path-effect>
</defs>
<g id="layer1" transform="translate(140.9254,-432.80085)">
	<g id="g5075" transform="translate(358.55178,58.601584)">
		<g id="g4702" transform="matrix(1.4812064,0,0,-1.4812064,-215.37753,1289.2889)">
			<g id="g5193">
				<g id="g4676" transform="translate(0,-1.0802006e-5)">
				</g>
				<g id="g5270">
					<g id="g5337" transform="matrix(4.5400849,0,0,4.5400849,-296.63873,-1982.3602)">
						<g id="g4646" transform="translate(67.112801,556.57658)">
							<path id="path4648" fill="#221F72" d="M-40.937,9.63l0.366-0.388l0.369,0.388l-0.369,0.386L-40.937,9.63z"/>
						</g>
						<g id="g4650" transform="translate(62.502005,571.02188)">
							<path id="path4652" fill="#221F72" d="M-37.88,0.053l-0.367,0.388l-0.37-0.388l0.37-0.386L-37.88,0.053z"/>
						</g>
						<g id="g4654" transform="translate(64.246104,556.57658)">
							<path id="path4656" fill="#221F72" d="M-39.036,9.63l0.372-0.388l0.368,0.388l-0.368,0.386L-39.036,9.63z"/>
						</g>
						<g id="g4658" transform="translate(65.3717,571.02188)">
							<path id="path4660" fill="#221F72" d="M-39.782,0.053l-0.373,0.388l-0.368-0.388l0.368-0.386L-39.782,0.053z"/>
						</g>
						<g id="g4662" transform="translate(0,-1.0802006e-5)">
							<g>
								<g>
									<defs>
										<rect id="SVGID_1_" x="-9276.387" y="-13162.441" width="18972.303" height="26920.16"/>
									</defs>
									<clipPath id="SVGID_2_">
										<use xlink:href="#SVGID_1_"  overflow="visible"/>
									</clipPath>
									<g id="g4664" clip-path="url(#SVGID_2_)">
										<g id="g4670" transform="translate(118.1639,569.9086)">
											<path id="path4672" fill="#221F72" d="M-74.783,0.791v-2.729c0-0.156-0.015-0.287-0.069-0.379
												c-0.066-0.113-0.184-0.206-0.408-0.206s-0.342,0.094-0.41,0.206c-0.055,0.093-0.071,0.223-0.071,0.379v1.969h-0.635
												v-1.96h-0.795v1.958h-0.631v-1.958h-0.794v1.96h-0.631v-1.96h-2.437c-0.703,0.049-0.868,0.428-0.868,0.78
												c0,0.495,0.435,0.686,0.91,0.686h1.035v0.494h-0.919c-0.747,0-1.372-0.31-1.372-1.094c0-0.51,0.227-0.742,0.425-0.866
												h-1.599v2.431c-1.382-0.173-2.48-1.216-2.48-2.928h1.852v-0.602c0-0.232,0.026-0.676-0.309-0.74v-0.266
												c0.234,0.025,0.611,0.183,0.778,0.469c0.13,0.222,0.158,0.425,0.158,0.891v0.248h7.757
												c0.024-0.061,0.057-0.124,0.1-0.188c0.194-0.271,0.536-0.391,0.936-0.391c0.396,0,0.735,0.121,0.928,0.391
												c0.161,0.229,0.179,0.456,0.179,0.732v2.674h-0.63V0.791z M-84.681-1.929h-1.297v0.093c0,1.117,0.86,1.798,1.297,1.918
												V-1.929L-84.681-1.929z"/>
										</g>
									</g>
								</g>
							</g>
						</g>
						<path id="path4674" fill="#221F72" d="M44.895,567.482h0.627v3.217h-0.627V567.482z"/>
						<g>
							<g>
								<defs>
									<rect id="SVGID_3_" x="-9276.387" y="-13162.441" width="18972.303" height="26920.16"/>
								</defs>
								<clipPath id="SVGID_4_">
									<use xlink:href="#SVGID_3_"  overflow="visible"/>
								</clipPath>
								<g id="g4678" transform="translate(0,-1.0802006e-5)" clip-path="url(#SVGID_4_)">
									<g id="g4684" transform="translate(77.3284,567.69)">
										<path id="path4686" fill="#221F72" d="M-47.709,2.262h-0.906V1.763h0.759c0.586,0,1.188-0.029,1.188-0.715
											c0-0.61-0.444-0.748-1.236-0.748h-1.523v-0.498h1.636c0.986,0,1.47,0.305,1.47,1.243
											C-46.321,1.989-46.895,2.262-47.709,2.262"/>
									</g>
									<g id="g4688" transform="translate(68.2001,561.8371)">
										<path id="path4690" fill="#221F72" d="M-41.658,6.143c0-0.159-0.018-0.287-0.072-0.383
											c-0.067-0.112-0.182-0.204-0.407-0.204c-0.221,0-0.341,0.091-0.408,0.204c-0.056,0.096-0.073,0.224-0.073,0.383v2.433
											c-1.504-0.144-2.478-1.343-2.478-2.931h1.921c0.027-0.061,0.06-0.12,0.101-0.18c0.191-0.27,0.534-0.391,0.932-0.391
											c0.401,0,0.737,0.121,0.928,0.391c0.164,0.227,0.185,0.453,0.185,0.731v2.123h-0.63V6.143H-41.658z M-43.251,6.143h-1.288
											v0.084c0,1.11,0.849,1.81,1.288,1.93V6.143z"/>
									</g>
									<g id="g4692" transform="translate(86.1093,542.1237)">
										<path id="path4694" fill="#221F72" d="M-53.531,19.212c-0.622,0-1.09,0.131-1.377,0.41
											c-0.254,0.239-0.372,0.511-0.372,1.054v2.268h0.674V20.58c0-0.348,0.053-0.547,0.218-0.726
											c0.178-0.193,0.484-0.298,0.856-0.298c0.37,0,0.674,0.105,0.853,0.298c0.165,0.179,0.216,0.378,0.216,0.726v2.364h0.679
											v-2.268c0-0.543-0.12-0.815-0.373-1.054C-52.444,19.344-52.915,19.212-53.531,19.212"/>
									</g>
									<g id="g4696" transform="translate(98.7911,553.4221)">
										<path id="path4698" fill="#221F72" d="M-61.939,11.722c-0.332-0.008-1.15-0.045-1.747-0.218l0.056-0.271
											c0.161,0.045,0.313,0.078,0.487,0.107V7.992c0.954-0.019,1.365-0.015,1.865,0.043c0.877,0.107,1.707,0.773,1.707,1.796
											C-59.571,11.271-60.847,11.743-61.939,11.722 M-61.808,8.309c-0.135,0-0.429,0.015-0.554,0.117
											c-0.102,0.09-0.105,0.235-0.105,0.454v2.535c1.038,0.093,2.187-0.216,2.187-1.595C-60.28,8.716-60.991,8.309-61.808,8.309
											"/>
									</g>
								</g>
							</g>
						</g>
						<path id="path4700" fill="#221F72" d="M40.153,561.414h0.678v3.654h-0.678V561.414z"/>
						<g>
							<g>
								<defs>
									<rect id="SVGID_5_" x="-9276.387" y="-13162.441" width="18972.303" height="26920.16"/>
								</defs>
								<clipPath id="SVGID_6_">
									<use xlink:href="#SVGID_5_"  overflow="visible"/>
								</clipPath>
								<g id="g4704" clip-path="url(#SVGID_6_)">
									<g id="g4710" transform="translate(79.6098,542.3537)">
										<path id="path4712" fill="#221F72" d="M-49.222,19.06h-0.768c-0.271,0.555-0.978,1.358-2.151,1.28l-0.618-1.28h-0.479
											l1.891,3.714h0.241L-49.222,19.06z M-51.994,20.648c0.345,0,0.99-0.047,1.449-0.416l-0.825,1.706L-51.994,20.648z"/>
									</g>
									<g id="g4714" transform="translate(124.5655,542.353)">
										<path id="path4716" fill="#221F72" d="M-79.027,19.06h-0.768c-0.271,0.554-0.978,1.357-2.152,1.28l-0.617-1.28h-0.479
											l1.89,3.714h0.242L-79.027,19.06z M-81.799,20.649c0.346,0,0.99-0.047,1.448-0.417l-0.824,1.706L-81.799,20.649z"/>
									</g>
									<g id="g4718" transform="translate(66.1096,552.8288)">
										<path id="path4720" fill="#221F72" d="M-40.272,12.115c-0.194,0.103-0.679,0.255-1.18,0.246
											c-0.885-0.023-1.474-0.387-1.48-1.045c-0.004-0.13,0.025-0.296,0.103-0.438c0.428-0.74,2.2-0.618,2.2-1.411
											c0-0.226-0.214-0.599-0.823-0.599c-0.662,0-1.166,0.308-1.408,0.5l-0.174-0.536c0.206-0.107,0.758-0.31,1.552-0.31
											c0.356,0,0.761,0.097,1.057,0.329c0.287,0.227,0.416,0.508,0.416,0.854c0,1.312-2.266,0.982-2.266,1.806
											c0,0.136,0.075,0.234,0.101,0.267c0.123,0.161,0.392,0.258,0.732,0.258c0.317,0,0.65-0.107,0.981-0.374L-40.272,12.115z"
											/>
									</g>
									<g id="g4722" transform="translate(50.6457,550.2384)">
										<path id="path4724" fill="#A39161" d="M6.588,13.522l-0.013-0.021c-0.81-1.422-2.326-2.378-4.068-2.378
											c-2.59,0-4.689,2.119-4.689,4.733c0,0.857,0.226,1.661,0.621,2.354l0.011,0.019l-0.005,0.017l-0.017-0.006l-0.012-0.017
											c-0.07-0.102-0.135-0.209-0.198-0.318c-1.287-2.268-0.494-5.169,1.773-6.481c2.266-1.312,5.148-0.537,6.434,1.731
											c0.064,0.109,0.121,0.221,0.174,0.333l0.01,0.022l-0.005,0.019L6.588,13.522z"/>
									</g>
									<g id="g4726" transform="translate(34.9207,568.2581)">
										<path id="path4728" fill="#A39161" d="M17.085,1.494c-0.667-0.143-1.787-0.835-2.025-1.985
											c0.719,0.857,1.467,1.307,2.04,1.412c-0.586-0.442-1.137-1.476-0.966-2.2c0.31,0.77,0.853,1.523,1.352,1.797
											c-0.282-0.469-0.374-1.604-0.104-2.105c0.063,0.65,0.267,1.494,0.587,1.911l0.095-0.815h-0.109L18.07-1.32h-0.091
											l0.095-0.829h-0.078l0.121-0.829l-0.388-0.2v-0.029h1.012v0.029l-0.388,0.2L18.235-3.07l0.117,0.092l0.119,0.829h-0.078
											l0.095,0.829h-0.091l0.116,0.829h-0.11l0.095,0.815c0.321-0.417,0.524-1.262,0.587-1.911
											c0.271,0.501,0.178,1.636-0.104,2.105c0.498-0.274,1.041-1.027,1.352-1.797c0.171,0.724-0.38,1.757-0.967,2.2
											c0.573-0.105,1.321-0.555,2.039-1.412c-0.237,1.149-1.357,1.841-2.024,1.985c0.735,0.074,1.45-0.164,2.099-0.482
											c-0.705,0.821-1.769,1.119-2.472,1.038c0.119,0.127,0.234,0.194,0.413,0.248c-0.297,0.14-0.759,0.067-0.939-0.137
											c0,0-0.033,0.381-0.249,0.531c-0.217-0.15-0.248-0.531-0.248-0.531c-0.181,0.204-0.643,0.277-0.939,0.137
											c0.179-0.054,0.293-0.121,0.413-0.248c-0.704,0.081-1.768-0.217-2.472-1.038C15.636,1.33,16.351,1.568,17.085,1.494"/>
									</g>
									<g id="g4730" transform="translate(38.9766,552.3417)">
										<path id="path4732" fill="#A39161" d="M14.377,12.118c-0.055-0.037-0.124-0.084-0.201-0.137
											c-0.076,0.053-0.145,0.1-0.2,0.137c-0.298,0.202-2.819,1.905-3.908,0.7c1.005,0.403,2.495-0.358,3.722-1.104
											c-0.307-0.212-0.657-0.455-0.954-0.658c-0.471,0.461-0.646,0.387-0.688,0.369c-0.046-0.02-0.079-0.063-0.081-0.116
											c-0.001-0.069,0.052-0.128,0.119-0.13c0.068-0.001,0.125,0.055,0.126,0.124l-0.003,0.028
											c0.131-0.083,0.252-0.195,0.557-0.512c0.31-0.324,0.43-0.413,0.521-0.467c0.063-0.037,0.127-0.046,0.166-0.043
											c0.064,0.003,0.128,0.05,0.131,0.123c0.004,0.072-0.05,0.132-0.119,0.133c-0.068,0.001-0.126-0.055-0.126-0.126v-0.012
											c-0.084,0.062-0.174,0.173-0.354,0.369c0.295,0.17,0.671,0.415,1.091,0.68c0.42-0.265,0.796-0.51,1.091-0.68
											c-0.179-0.196-0.269-0.307-0.354-0.369v0.012c0,0.072-0.058,0.128-0.126,0.126c-0.069-0.001-0.122-0.06-0.118-0.133
											c0.003-0.073,0.066-0.12,0.131-0.123c0.039-0.003,0.102,0.006,0.166,0.043c0.091,0.054,0.211,0.143,0.522,0.467
											c0.304,0.317,0.426,0.429,0.556,0.512l-0.002-0.028c0.002-0.07,0.059-0.125,0.125-0.124
											c0.067,0.002,0.121,0.061,0.12,0.13c-0.003,0.053-0.035,0.096-0.081,0.116c-0.043,0.018-0.218,0.092-0.689-0.369
											c-0.297,0.203-0.648,0.446-0.954,0.658c1.227,0.746,2.717,1.507,3.722,1.104C17.195,14.023,14.675,12.321,14.377,12.118"
											/>
									</g>
									<g id="g4734" transform="translate(30.5174,547.5707)">
										<path id="path4736" fill="#A39161" d="M20.024,15.303c-0.039,0.017-0.079,0.04-0.1,0.043
											c-0.014,0.002-0.026-0.001-0.035-0.011c-0.008-0.011-0.011-0.032-0.002-0.049c0.005-0.012,0.02-0.036,0.059-0.071
											c0.165-0.144,0.496-0.274,1.37,0.22c-0.027,0.026-0.054,0.055-0.083,0.085c-0.058,0.061-0.11,0.114-0.156,0.16
											C20.616,15.386,20.25,15.21,20.024,15.303"/>
									</g>
									<g id="g4738" transform="translate(46.2279,547.5707)">
										<path id="path4740" fill="#A39161" d="M9.537,15.303c-0.226-0.093-0.592,0.083-1.054,0.378
											c-0.046-0.046-0.096-0.099-0.156-0.16c-0.028-0.03-0.056-0.059-0.082-0.085c0.872-0.493,1.205-0.364,1.369-0.22
											c0.04,0.035,0.054,0.058,0.059,0.071c0.01,0.017,0.007,0.038-0.003,0.049c-0.008,0.009-0.021,0.013-0.035,0.011
											C9.616,15.343,9.576,15.32,9.537,15.303"/>
									</g>
								</g>
							</g>
						</g>
					</g>
				</g>
			</g>
		</g>
	</g>
</g>
</svg>
